<?xml version="1.0" encoding="UTF-8" standalone="no"?>
<svg
   xmlns:dc="http://purl.org/dc/elements/1.1/"
   xmlns:cc="http://creativecommons.org/ns#"
   xmlns:rdf="http://www.w3.org/1999/02/22-rdf-syntax-ns#"
   xmlns:svg="http://www.w3.org/2000/svg"
   xmlns="http://www.w3.org/2000/svg"
   viewBox="0 0 731.59998 207.94667"
   height="207.94667"
   width="731.59998"
   xml:space="preserve"
   id="svg2"
   version="1.1"><metadata
     id="metadata8"><rdf:RDF><cc:Work
         rdf:about=""><dc:format>image/svg+xml</dc:format><dc:type
           rdf:resource="http://purl.org/dc/dcmitype/StillImage" /></cc:Work></rdf:RDF></metadata><defs
     id="defs6" /><g
     transform="matrix(1.3333333,0,0,-1.3333333,0,207.94667)"
     id="g10"><g
       transform="scale(0.1)"
       id="g12"><path
         id="path14"
         style="fill:#2150a6;fill-opacity:1;fill-rule:nonzero;stroke:none"
         d="m 1490.6,41.5781 c -16.32,-10.8476 -33.23,-16.2968 -50.73,-16.2968 -15.91,0 -30.87,3.5781 -44.86,10.75 -10.83,5.2382 -19.57,12.3281 -26.25,21.25 -8.75,11.7578 -15.99,26.9492 -21.72,45.5707 -3.5,11.449 -5.25,30.699 -5.25,57.75 0,46.617 10.26,82.976 30.79,109.046 15.11,19.274 34.99,28.891 59.66,28.891 20.05,0 38.18,-4.75 54.41,-14.187 16.23,-9.473 31.98,-25.032 47.25,-46.653 h 21.72 c -0.17,11.449 -1.67,22.25 -4.54,32.449 -6.36,22.411 -10.58,36.032 -12.64,40.801 -15.12,3.973 -31.39,6.949 -48.8,8.942 -17.43,1.988 -36.01,2.988 -55.73,2.988 -48.53,0 -88.41,-15.43 -119.69,-46.289 -31.25,-30.879 -46.89,-70.02 -46.89,-117.43 0,-19.57 2.5,-37.219 7.52,-52.969 5,-15.7613 12.68,-30.3316 23.03,-43.691 10.34,-13.3711 24.58,-25.7695 42.72,-37.2187 12.41,-7.9415 27.33,-13.7422 44.74,-17.42192 17.43,-3.66797 35.92,-5.48829 55.49,-5.48829 25.61,0 47.21,1.87891 64.79,5.61719 17.58,3.72262 31.22,9.35152 40.93,16.83202 l 3.34,11.1485 2.15,7.1406 c 3.18,17.6094 5.01,27.6797 5.49,30.2187 1.43,6.4805 2.46,12.7617 3.1,18.7617 -9.55,-0.1406 -17.27,-0.7812 -23.15,-1.8789 -14.95,-21.5507 -30.58,-37.7812 -46.88,-48.6328" /><path
         id="path16"
         style="fill:#2150a6;fill-opacity:1;fill-rule:nonzero;stroke:none"
         d="m 1734.43,63.7813 c -3.51,-15.7696 -9.23,-27.3829 -17.18,-34.793 -7.97,-7.4102 -17.75,-11.1094 -29.36,-11.1094 -9.71,0 -18.06,1.9219 -25.06,5.7422 -7,3.8203 -12.01,8.207 -15.03,13.1602 -4.46,7.6406 -7.73,16.8085 -9.79,27.4804 -0.64,3.0196 -1.67,14.3985 -3.1,34.1602 0.32,28.1871 1.51,46.5981 3.58,55.1991 3.18,13.391 8.8,23.508 16.82,30.34 8.04,6.859 18.18,10.269 30.44,10.269 15.58,0 28.16,-5.992 37.7,-18.039 9.55,-12.031 14.32,-32.519 14.32,-61.511 0,-23.5902 -1.12,-40.5511 -3.34,-50.8987 z m 30.99,117.0897 c -18.63,19.59 -44.59,29.367 -77.88,29.367 -15.3,0 -28.31,-1.629 -39.06,-4.898 -10.75,-3.27 -21.47,-8.699 -32.13,-16.328 -7.34,-5.422 -14.07,-12.114 -20.2,-20.043 -6.13,-7.969 -10.95,-17.321 -14.46,-28.071 -3.5,-10.718 -5.24,-21.418 -5.24,-32.078 0,-20.9919 3.7,-38.5817 11.1,-52.7497 7.41,-14.1601 19.76,-26.8008 37.04,-37.9297 17.27,-11.15232 38.34,-16.73044 63.18,-16.73044 22.14,0 41.57,4.69922 58.3,14.08984 16.72,9.3984 30.02,23.9414 39.89,43.6797 6.54,13.0391 9.8,30.2305 9.8,51.5583 0,11.282 -2.51,23.34 -7.52,36.141 -5.03,12.793 -12.62,24.152 -22.82,33.992" /><path
         id="path18"
         style="fill:#2150a6;fill-opacity:1;fill-rule:nonzero;stroke:none"
         d="m 2038.38,23.2383 c -7.16,1.1601 -11.54,2.2812 -13.13,3.3633 -1.28,2.3867 -1.9,5.4297 -1.9,9.0976 l 0.95,77.9488 c 0,29.493 -1.75,49.09 -5.24,58.801 -3.5,9.731 -10.89,18.301 -22.16,25.711 -11.27,7.41 -24.37,11.121 -39.31,11.121 -12.71,0 -26.14,-2.941 -40.27,-8.84 -10.8,-4.453 -22.8,-12.41 -35.97,-23.863 -0.33,6.051 -0.48,9.692 -0.48,10.973 0,1.609 0.15,3.738 0.48,6.461 l 0.48,26.949 -12.89,-0.949 c -6.68,-8.274 -12.41,-14.071 -17.18,-17.41 -2.39,-1.582 -4.54,-3.192 -6.45,-4.774 -1.75,-0.949 -3.02,-1.68 -3.82,-2.129 -2.54,-1.289 -8.2,-3.527 -16.94,-6.687 -11.14,-2.864 -17.53,-4.422 -19.22,-4.672 -1.65,-0.231 -3.54,-0.68 -5.6,-1.309 l 0.24,-11.453 c 10.65,-3.039 18.21,-6.137 22.67,-9.316 3.34,-2.391 5.32,-4.782 5.97,-7.16 1.58,-6.391 2.38,-14.602 2.38,-24.622 v -15.05 l 0.72,-25.0902 -0.24,-16.9882 V 52.5781 c 0,-10.8281 -0.48,-17.8593 -1.43,-21.0195 -0.81,-2.0898 -2.39,-3.8203 -4.78,-5.2578 -1.43,-0.9727 -6.52,-2.1602 -15.27,-3.5899 -3.5,-0.6601 -7.32,-1.9101 -11.45,-3.8203 -0.17,-3.7695 -0.24,-6.2812 -0.24,-7.5312 0,-1.71096 0.31,-3.37112 0.95,-4.92971 24.08,1.10937 42.49,1.66015 55.24,1.66015 l 25.59,-0.53125 c 7.17,-1.07812 12.44,-1.60937 15.79,-1.60937 3.34,0 7.49,0.08203 12.43,0.24219 1.12,3.98829 1.69,6.92969 1.69,8.82809 0,1.2813 -0.24,3.2696 -0.73,5.9805 -13.81,4.0703 -21.74,7.8086 -23.83,11.1484 -2.08,3.3516 -3.12,17.9727 -3.12,43.9219 l 0.47,5.9492 -0.95,38.2105 0.48,15.969 -0.48,15.051 0.48,4.051 c 10.14,9.238 19.99,16.148 29.51,20.668 9.52,4.551 18.71,6.812 27.61,6.812 12.05,0 21.1,-5.953 27.13,-17.91 4.28,-8.293 6.43,-29.242 6.43,-62.851 l -0.24,-27.7114 c 0.15,-7.1875 0.24,-17.457 0.24,-30.8477 0,-7.6406 -0.64,-12.8125 -1.91,-15.5312 -0.48,-1.2813 -2.31,-2.5391 -5.49,-3.8203 -2.86,-0.8008 -5.49,-1.3477 -7.87,-1.668 -8.91,-1.1133 -14.47,-1.9219 -16.71,-2.3906 -0.31,-3.2227 -0.48,-6.2305 -0.48,-8.9922 0,-1.08985 0.08,-2.61719 0.24,-4.62891 h 8.12 l 31.5,2.17187 h 10.97 l 13.85,0.44922 46.77,-3.32031 c 0.15,3.26953 0.24,5.85933 0.24,7.73833 0,2.9921 -0.72,5.4726 -2.15,7.5312 l -11.69,2.2383" /><path
         id="path20"
         style="fill:#2150a6;fill-opacity:1;fill-rule:nonzero;stroke:none"
         d="m 2167.54,44.5898 c -2.08,-1.4296 -3.58,-2.539 -4.54,-3.3398 -4.93,-3.8008 -8.44,-6.1016 -10.5,-6.9102 -2.07,-0.7695 -5.25,-1.1796 -9.55,-1.1796 -4.45,0 -8.51,0.8789 -12.16,2.6093 -2.87,4 -4.74,8.1719 -5.62,12.5313 -0.87,4.3789 -1.23,15.3984 -1.07,33.0703 l 0.48,91.1599 11.46,0.707 4.29,-0.226 h 12.41 c 3.82,-0.633 6.36,-0.961 7.64,-0.961 2.7,0 6.68,0.48 11.93,1.437 1.1,4.871 1.67,9.141 1.67,12.75 0,3.321 -0.48,7.09 -1.43,11.364 -10.83,-0.321 -16.79,-0.5 -17.9,-0.5 -14.17,-0.633 -21.64,-0.954 -22.43,-0.954 l -5.49,0.25 c -0.17,2.864 -0.24,4.704 -0.24,5.473 l 0.72,14.098 c 0.15,4.621 0.24,11.051 0.24,19.32 0,4.621 -0.72,8.992 -2.15,13.133 h -13.37 c -9.54,-17.16 -18.49,-29.543 -26.85,-37.184 -8.34,-7.629 -21.92,-15.398 -40.68,-23.359 -0.33,-6.129 -0.48,-9.668 -0.48,-10.629 0,-1.25 0.48,-2.578 1.43,-4.012 l 3.1,-1.187 17.19,0.48 7.39,-0.48 v -67.93 l -0.95,-41.9218 c 0,-19.7187 4.61,-34.2383 13.84,-43.6094 9.22,-9.39839 21.24,-14.07027 36.03,-14.07027 11.46,0 22.24,2.51172 32.34,7.51177 10.11,5.0195 17.93,11.9101 23.51,20.6484 l -0.95,2.8711 c -2.39,3.0078 -5.49,6.0273 -9.31,9.039" /><path
         id="path22"
         style="fill:#2150a6;fill-opacity:1;fill-rule:nonzero;stroke:none"
         d="m 2308.06,210.238 c -6.84,0 -12.97,-1.976 -18.37,-5.957 -7.01,-6.051 -11.22,-9.941 -12.65,-11.703 -3.03,-3.816 -7.8,-11.308 -14.32,-22.437 -0.16,11.461 -0.24,18.07 -0.24,19.82 0,3.648 0.08,8.269 0.24,13.82 0.15,2.559 0.24,4.699 0.24,6.457 0,2.383 -0.4,5.403 -1.2,9.071 l -16.7,-0.481 c -1.91,-1.906 -4.15,-4.699 -6.68,-8.367 -4.78,-6.68 -11.93,-13.231 -21.48,-19.672 -9.55,-6.449 -20.21,-10.469 -31.98,-12.059 l 0.72,-8.808 c 0.63,-2.711 2.53,-4.481 5.72,-5.25 6.84,-1.613 12.25,-3.422 16.23,-5.512 2.23,-1.898 3.49,-4.109 3.82,-6.648 1.74,-14.153 2.62,-41.301 2.62,-81.4925 0,-21.9101 -0.71,-34.7695 -2.14,-38.5781 -7.32,-4.6328 -15.04,-7.8008 -23.15,-9.5312 -3.34,-0.8321 -6.05,-2.1485 -8.11,-3.9414 -0.48,-2.4571 -0.72,-4.3477 -0.72,-5.6797 0,-1.3008 0.24,-3.2891 0.72,-5.89847 15.42,0.80078 23.7,1.21093 24.81,1.21093 h 4.06 C 2218.88,9.53906 2229.31,10 2240.76,10 l 45.59,-2.14062 h 22.43 c 0.95,2.90232 1.43,5.26172 1.43,7.01952 0,3.0508 -0.81,5.2695 -2.39,6.6524 -1.59,1.3789 -6.05,2.3906 -13.36,3.0078 -7.32,0.6601 -12.45,1.4609 -15.4,2.4218 -2.94,0.9493 -5.84,2.5391 -8.7,4.7383 -2.55,3.9805 -4.06,7.9414 -4.54,11.9102 -0.33,43.289 -0.8,70.7886 -1.43,82.5316 l -0.48,6.418 c 0,8.55 2.23,16.812 6.69,24.722 2.7,4.93 5.72,7.938 9.06,9.039 l 1.67,0.239 c 2.7,0 6.28,-1.739 10.75,-5.231 7.47,-5.726 14.62,-8.59 21.47,-8.59 7.79,0 14.04,2.961 18.74,8.942 4.69,5.949 7.04,12.691 7.04,20.148 0,7.481 -3.11,14.094 -9.31,19.813 -6.21,5.738 -13.53,8.597 -21.96,8.597" /><path
         id="path24"
         style="fill:#2150a6;fill-opacity:1;fill-rule:nonzero;stroke:none"
         d="m 2461.05,51.6484 c -1.43,-4.0468 -6.37,-9.5 -14.8,-16.3203 -6.2,-5.1093 -13.76,-7.6367 -22.67,-7.6367 -5.41,0 -10.19,2.207 -14.32,6.6797 -4.14,4.4375 -6.2,10.0977 -6.2,16.9297 0,7.6406 1.58,14.0586 4.77,19.3398 4.45,7.1407 12.37,14.2696 23.75,21.3594 11.37,7.0586 21.59,12.121 30.67,15.141 0.62,-7.012 0.94,-13.9926 0.94,-21.0004 0,-18.9414 -0.71,-30.4218 -2.14,-34.4922 z m 84.96,-3.457 -5.49,3.5781 -4.3,-1.6797 -7.16,-11.1992 c -1.26,-0.9609 -2.73,-1.4414 -4.46,-1.4414 -2.81,0 -5.12,1.2422 -6.91,3.6992 -1.8,2.461 -2.71,7.043 -2.71,13.7227 v 7.4102 l -0.48,28.8593 0.48,39.3904 c 0,24.008 -1.78,40.649 -5.37,49.891 -3.57,9.219 -9.94,16.18 -19.09,20.867 -9.15,4.68 -20.09,7.039 -32.81,7.039 -19.73,0 -36.44,-2.226 -50.12,-6.687 -10.02,-3.481 -20.8,-9.59 -32.33,-18.262 -11.54,-8.66 -20.17,-17.609 -25.9,-26.82 -3.82,-6.539 -5.73,-14.321 -5.73,-23.418 0,-3.493 1.11,-6.172 3.34,-8.09 5.09,0 11.94,2.058 20.53,6.179 2.22,1.141 6.48,2.911 12.76,5.372 6.29,2.468 10.62,5.226 13.01,8.25 0.96,1.097 1.99,5.168 3.11,12.16 1.58,9.718 3.49,16.316 5.73,19.816 3.01,4.774 7.87,8.66 14.55,11.684 6.68,3.039 13.99,4.547 21.95,4.547 7.95,0 13.52,-2.387 16.71,-7.168 5.25,-7.782 7.87,-22.43 7.87,-43.903 0,-6.218 -0.23,-12.34 -0.71,-18.386 l -59.42,-23.8715 c -10.35,-4.4414 -16.39,-7.1289 -18.14,-8.0899 -11.45,-6.3789 -19.77,-12.2304 -24.93,-17.5508 -5.17,-5.3398 -8.92,-10.7109 -11.23,-16.1093 -2.3,-5.4024 -3.46,-10.75 -3.46,-15.9688 0,-11.3125 3.9,-20.4336 11.7,-27.3398 7.8,-6.93362 19.97,-10.40237 36.53,-10.40237 17.97,0 33.16,3.07031 45.57,9.19927 12.41,6.121 22.05,15.2421 28.9,27.3203 5.56,-13.0274 11.72,-22.1407 18.48,-27.3203 6.76,-5.17974 14.84,-7.73833 24.22,-7.73833 9.22,0 16.93,2.62891 23.14,7.98043 6.2,5.3399 11.21,15.0782 15.03,29.25 l -0.24,1.168 c -0.32,1.6016 -1.19,2.9414 -2.62,4.0625" /><path
         id="path26"
         style="fill:#2150a6;fill-opacity:1;fill-rule:nonzero;stroke:none"
         d="m 2737.64,69.1797 c -1.76,-1.8984 -5.05,-5.6211 -9.9,-11.1992 -4.86,-5.5703 -8.16,-8.9922 -9.91,-10.25 -6.84,-4.7696 -12.25,-7.8789 -16.23,-9.3203 -6.37,-2.0586 -14.07,-3.0821 -23.14,-3.0821 -18.3,0 -34.64,7.8125 -49.04,23.4805 -14.41,15.6797 -21.61,36.8008 -21.61,63.3824 0,22.11 5.88,39.559 17.67,52.368 11.77,12.8 25.13,19.222 40.09,19.222 6.21,0 11.53,-1.609 15.99,-4.769 4.45,-3.364 8.12,-8.692 10.98,-16 3.65,-10.172 8.22,-17.41 13.73,-21.731 5.47,-4.269 11.47,-6.429 18.01,-6.429 7.63,0 13.64,2.41 18.01,7.277 4.38,4.859 6.57,11.492 6.57,19.922 0,8.597 -5.41,17.187 -16.23,25.777 -10.82,8.594 -29.99,12.891 -57.51,12.891 -20.05,0 -38.06,-3.418 -54.06,-10.258 -15.98,-6.852 -29.23,-16.07 -39.73,-27.672 -10.5,-11.629 -17.99,-24 -22.43,-37.129 -4.47,-13.121 -6.68,-24.851 -6.68,-35.199 0,-8.5899 1.78,-19.0196 5.36,-31.2813 3.59,-12.2305 8.95,-22.5781 16.11,-30.9883 9.22,-11.0117 21.63,-19.832 37.23,-26.5117 C 2626.5,5 2642.26,1.66016 2658.17,1.66016 c 25.3,0 46.22,5.80078 62.77,17.44144 16.54,11.5976 26.96,25.3672 31.26,41.2578 -2.24,2.4023 -5.18,4.3789 -8.83,5.9609 -1.28,0.5 -3.19,1.461 -5.73,2.8594" /><path
         id="path28"
         style="fill:#2150a6;fill-opacity:1;fill-rule:nonzero;stroke:none"
         d="m 2883.56,44.5898 c -2.08,-1.4296 -3.58,-2.539 -4.54,-3.3398 -4.94,-3.8008 -8.44,-6.1016 -10.49,-6.9102 -2.08,-0.7695 -5.26,-1.1796 -9.55,-1.1796 -4.47,0 -8.52,0.8789 -12.17,2.6093 -2.87,4 -4.74,8.1719 -5.62,12.5313 -0.87,4.3789 -1.23,15.3984 -1.07,33.0703 l 0.48,91.1599 11.45,0.707 4.3,-0.226 h 12.41 c 3.82,-0.633 6.36,-0.961 7.64,-0.961 2.69,0 6.68,0.48 11.93,1.437 1.1,4.871 1.67,9.141 1.67,12.75 0,3.321 -0.48,7.09 -1.43,11.364 -10.83,-0.321 -16.79,-0.5 -17.91,-0.5 -14.16,-0.633 -21.64,-0.954 -22.43,-0.954 l -5.49,0.25 c -0.15,2.864 -0.23,4.704 -0.23,5.473 l 0.71,14.098 c 0.16,4.621 0.25,11.051 0.25,19.32 0,4.621 -0.73,8.992 -2.15,13.133 h -13.37 c -9.54,-17.16 -18.49,-29.543 -26.86,-37.184 -8.34,-7.629 -21.91,-15.398 -40.68,-23.359 -0.32,-6.129 -0.48,-9.668 -0.48,-10.629 0,-1.25 0.48,-2.578 1.44,-4.012 l 3.1,-1.187 17.18,0.48 7.4,-0.48 v -67.93 l -0.95,-41.9218 c 0,-19.7187 4.61,-34.2383 13.83,-43.6094 9.23,-9.39839 21.24,-14.07027 36.05,-14.07027 11.45,0 22.23,2.51172 32.32,7.51177 10.12,5.0195 17.94,11.9101 23.52,20.6484 l -0.96,2.8711 c -2.38,3.0078 -5.49,6.0273 -9.3,9.039" /><path
         id="path30"
         style="fill:#2150a6;fill-opacity:1;fill-rule:nonzero;stroke:none"
         d="m 3051,63.7813 c -3.51,-15.7696 -9.23,-27.3829 -17.18,-34.793 -7.97,-7.4102 -17.75,-11.1094 -29.36,-11.1094 -9.7,0 -18.06,1.9219 -25.06,5.7422 -7.01,3.8203 -12.02,8.207 -15.03,13.1602 -4.46,7.6406 -7.73,16.8085 -9.79,27.4804 -0.63,3.0196 -1.67,14.3985 -3.1,34.1602 0.32,28.1871 1.51,46.5981 3.58,55.1991 3.18,13.391 8.8,23.508 16.83,30.34 8.03,6.859 18.17,10.269 30.43,10.269 15.58,0 28.16,-5.992 37.7,-18.039 9.55,-12.031 14.32,-32.519 14.32,-61.511 0,-23.5902 -1.12,-40.5511 -3.34,-50.8987 z m 30.98,117.0897 c -18.62,19.59 -44.59,29.367 -77.87,29.367 -15.3,0 -28.31,-1.629 -39.06,-4.898 -10.75,-3.27 -21.47,-8.699 -32.13,-16.328 -7.33,-5.422 -14.07,-12.114 -20.19,-20.043 -6.14,-7.969 -10.96,-17.321 -14.47,-28.071 -3.5,-10.718 -5.24,-21.418 -5.24,-32.078 0,-20.9919 3.7,-38.5817 11.1,-52.7497 7.4,-14.1601 19.76,-26.8008 37.04,-37.9297 17.27,-11.15232 38.33,-16.73044 63.18,-16.73044 22.14,0 41.57,4.69922 58.31,14.08984 16.71,9.3984 30.02,23.9414 39.88,43.6797 6.53,13.0391 9.8,30.2305 9.8,51.5583 0,11.282 -2.51,23.34 -7.52,36.141 -5.02,12.793 -12.62,24.152 -22.83,33.992" /><path
         id="path32"
         style="fill:#2150a6;fill-opacity:1;fill-rule:nonzero;stroke:none"
         d="m 3242.56,210.238 c -6.85,0 -12.98,-1.976 -18.38,-5.957 -7.01,-6.051 -11.21,-9.941 -12.65,-11.703 -3.02,-3.816 -7.8,-11.308 -14.31,-22.437 -0.17,11.461 -0.25,18.07 -0.25,19.82 0,3.648 0.08,8.269 0.25,13.82 0.14,2.559 0.23,4.699 0.23,6.457 0,2.383 -0.4,5.403 -1.19,9.071 l -16.71,-0.481 c -1.9,-1.906 -4.14,-4.699 -6.68,-8.367 -4.77,-6.68 -11.93,-13.231 -21.47,-19.672 -9.55,-6.449 -20.22,-10.469 -31.99,-12.059 l 0.72,-8.808 c 0.63,-2.711 2.54,-4.481 5.73,-5.25 6.84,-1.613 12.25,-3.422 16.23,-5.512 2.22,-1.898 3.49,-4.109 3.82,-6.648 1.74,-14.153 2.62,-41.301 2.62,-81.4925 0,-21.9101 -0.72,-34.7695 -2.14,-38.5781 -7.33,-4.6328 -15.04,-7.8008 -23.16,-9.5312 -3.34,-0.8321 -6.05,-2.1485 -8.11,-3.9414 -0.48,-2.4571 -0.72,-4.3477 -0.72,-5.6797 0,-1.3008 0.24,-3.2891 0.72,-5.89847 15.43,0.80078 23.7,1.21093 24.82,1.21093 h 4.05 C 3153.38,9.53906 3163.8,10 3175.25,10 l 45.59,-2.14062 h 22.43 c 0.96,2.90232 1.44,5.26172 1.44,7.01952 0,3.0508 -0.81,5.2695 -2.39,6.6524 -1.6,1.3789 -6.06,2.3906 -13.36,3.0078 -7.33,0.6601 -12.46,1.4609 -15.4,2.4218 -2.94,0.9493 -5.84,2.5391 -8.71,4.7383 -2.54,3.9805 -4.06,7.9414 -4.54,11.9102 -0.32,43.289 -0.8,70.7886 -1.42,82.5316 l -0.48,6.418 c 0,8.55 2.23,16.812 6.68,24.722 2.7,4.93 5.73,7.938 9.07,9.039 l 1.67,0.239 c 2.7,0 6.28,-1.739 10.74,-5.231 7.47,-5.726 14.63,-8.59 21.48,-8.59 7.78,0 14.04,2.961 18.74,8.942 4.69,5.949 7.03,12.691 7.03,20.148 0,7.481 -3.11,14.094 -9.31,19.813 -6.2,5.738 -13.52,8.597 -21.95,8.597" /><path
         id="path34"
         style="fill:#2150a6;fill-opacity:1;fill-rule:nonzero;stroke:none"
         d="m 3401.26,121.23 c -9.88,4.598 -25.27,9.219 -46.16,13.821 -13.88,2.859 -23.57,7.078 -29.04,12.66 -5.65,5.398 -8.48,10.75 -8.48,15.98 0,7.957 2.7,14.239 8.11,18.86 7.47,6.359 16.71,9.551 27.69,9.551 10.5,0 19.77,-2.922 27.79,-8.723 8.04,-5.801 15.88,-15.77 23.52,-29.938 2.38,-4.441 4.29,-7.793 5.72,-10.031 3.02,-0.32 5.33,-0.469 6.92,-0.469 2.71,0 6.13,0.629 10.27,1.911 0.48,1.277 0.71,2.457 0.71,3.558 0,2.41 -0.88,10.211 -2.63,23.418 -1.75,13.184 -3.09,21.633 -4.05,25.274 -7.96,4.136 -17.65,7.257 -29.11,9.32 -11.45,2.058 -24.75,3.09 -39.85,3.09 -10.67,0 -20.66,-1.813 -29.95,-5.473 -9.32,-3.68 -16.28,-7.719 -20.89,-12.16 -6.37,-5.91 -11.3,-12.719 -14.8,-20.43 -3.5,-7.711 -5.24,-17.609 -5.24,-29.719 0,-6.5 2.06,-14.308 6.2,-23.359 3.02,-6.383 7.43,-12.109 13.25,-17.18 5.8,-5.1012 12.43,-9.1012 19.92,-11.9605 3.34,-1.2617 13.01,-3.8907 28.99,-7.8594 16,-3.9727 25.97,-6.8398 29.96,-8.5898 8.11,-3.5 13.51,-7.0313 16.23,-10.6329 2.69,-3.5586 4.05,-7.9101 4.05,-13.0195 0,-7.457 -3.57,-14.4101 -10.74,-20.8594 -7.16,-6.4414 -15.74,-9.6797 -25.77,-9.6797 -5.89,0 -11.46,0.9493 -16.7,2.8711 -7.8,2.6993 -13.54,5.3477 -17.19,7.8789 -5.41,3.9688 -10.9,9.2188 -16.46,15.75 -2.72,3.1915 -8.36,12.3399 -16.95,27.461 l -2.15,2.3711 c -2.23,0.1679 -3.9,0.2383 -5.01,0.2383 -2.23,0 -5.73,-0.4805 -10.5,-1.4297 0.15,-3.8086 1.51,-15.4297 4.06,-34.8399 1.42,-11.9297 2.51,-18.5898 3.21,-19.9218 0.73,-1.3594 1.95,-2.5079 3.7,-3.4688 9.39,-3.9609 15.19,-6.28125 17.43,-6.89844 9.07,-2.41015 16.94,-4 23.63,-4.78125 14.79,-1.60937 23.93,-2.41015 27.44,-2.41015 26.73,0 47.05,6.17968 60.97,18.51954 13.93,12.3008 20.88,27.6992 20.88,46.1719 0,11.9297 -2.91,22.4297 -8.73,31.4882 -5.83,9.0702 -15.9,16.9612 -30.25,23.6402" /><path
         id="path36"
         style="fill:#2150a6;fill-opacity:1;fill-rule:nonzero;stroke:none"
         d="m 3832.86,96.1719 c -4.29,-12.8516 -8.16,-22.043 -11.58,-27.5938 -3.42,-5.5468 -7.84,-10.6992 -13.24,-15.4492 -3.34,-4.4375 -10.5,-8.8906 -21.48,-13.3086 C 3771.91,33.9414 3751.8,31 3726.17,31 l -15.02,0.25 -14.07,-0.25 -22.68,0.9297 c -1.59,1.4297 -2.39,4.5508 -2.39,9.3203 l 0.96,113.25 c 0,6.352 0.07,11.531 0.24,15.52 0.46,10.652 0.71,20.152 0.71,28.41 0,7.191 -0.25,15.531 -0.71,25.101 -0.35,6.047 -0.49,10.348 -0.49,12.879 0,2.09 0.07,4.149 0.19,6.231 0.35,7.968 0.53,12.328 0.53,13.14 v 2.61 4.328 l 0.73,15.051 0.23,6.679 c 0.33,0.801 0.78,1.75 1.43,2.86 1.9,0.961 3.26,1.582 4.07,1.91 l 29.59,6.941 c 6.03,0.801 9.54,1.75 10.5,2.86 1.74,1.878 2.62,4.652 2.62,8.242 0,4.566 -0.66,7.699 -1.92,9.437 -0.95,1.25 -2.6,1.891 -5.02,1.891 -0.81,0 -3.72,-0.238 -8.81,-0.66 -17.19,-1.309 -31.28,-1.961 -42.23,-1.961 l -25.32,0.453 -34.12,-0.231 c -23.86,1.278 -37.71,1.918 -41.53,1.918 -1.58,0 -3.08,-0.398 -4.54,-1.179 -0.15,-2.571 -0.23,-4.481 -0.23,-5.739 0,-2.23 0.15,-5.421 0.48,-9.543 2.21,-1.91 6.13,-3.589 11.7,-5.027 3.17,-0.621 6.73,-1.75 10.73,-3.34 5.25,-2.082 8.27,-3.261 9.07,-3.59 8.11,-2.531 12.69,-4.64 13.72,-6.332 1.06,-1.66 2.11,-10.847 3.21,-27.578 v -3.34 l -0.22,-24.121 -0.96,-53.281 0.48,-24.84 -0.25,-23.41 v -19.82 l -1.41,-31.0471 0.45,-30.5703 c 0,-2.5625 -0.45,-5.7618 -1.41,-9.5821 -2.08,-1.8281 -6.23,-2.8398 -12.4,-2.9804 -1.61,0 -6.88,-0.6602 -15.88,-1.9688 -8.99,-1.3008 -15.97,-2.6797 -20.9,-4.0898 -1.11,-3.0391 -1.66,-7.8907 -1.66,-14.5703 0,-1.2813 0.15,-2.78911 0.48,-4.51957 2.06,-0.17969 3.6,-0.25 4.54,-0.25 h 3.58 c 16.37,1.28125 33.95,2.14843 52.75,2.60937 l 48.68,1.4609 c 26.08,0 52.73,-0.5117 79.93,-1.4609 27.21,-0.94922 42.41,-1.51172 45.57,-1.66016 17.51,-1.28125 26.98,-1.91015 28.42,-1.91015 l 12.4,0.25 h 8.82 c 0.96,0 3.27,0.30859 6.93,0.96094 1.12,2.50777 2.22,9.48827 3.34,20.92967 2.87,28.5508 4.3,48.5508 4.3,59.9805 v 6.6601 c -4.77,0.6172 -9.06,0.961 -12.88,0.961 h -7.64" /><path
         id="path38"
         style="fill:#2150a6;fill-opacity:1;fill-rule:nonzero;stroke:none"
         d="m 3973.97,44.5898 c -2.07,-1.4296 -3.58,-2.539 -4.53,-3.3398 -4.95,-3.8008 -8.44,-6.1016 -10.5,-6.9102 -2.08,-0.7695 -5.28,-1.1796 -9.54,-1.1796 -4.48,0 -8.55,0.8789 -12.19,2.6093 -2.86,4 -4.75,8.1719 -5.6,12.5313 -0.88,4.3789 -1.26,15.3984 -1.08,33.0703 l 0.48,91.1599 11.45,0.707 4.3,-0.226 h 12.41 c 3.82,-0.633 6.35,-0.961 7.64,-0.961 2.68,0 6.68,0.48 11.93,1.437 1.1,4.871 1.65,9.141 1.65,12.75 0,3.321 -0.45,7.09 -1.41,11.364 -10.84,-0.321 -16.8,-0.5 -17.91,-0.5 -14.17,-0.633 -21.63,-0.954 -22.43,-0.954 l -5.48,0.25 c -0.17,2.864 -0.25,4.704 -0.25,5.473 l 0.71,14.098 c 0.15,4.621 0.25,11.051 0.25,19.32 0,4.621 -0.71,8.992 -2.16,13.133 h -13.36 c -9.55,-17.16 -18.5,-29.543 -26.84,-37.184 -8.34,-7.629 -21.92,-15.398 -40.69,-23.359 -0.32,-6.129 -0.48,-9.668 -0.48,-10.629 0,-1.25 0.48,-2.578 1.44,-4.012 l 3.11,-1.187 17.18,0.48 7.38,-0.48 v -67.93 l -0.94,-41.9218 c 0,-19.7187 4.62,-34.2383 13.83,-43.6094 9.22,-9.39839 21.23,-14.07027 36.05,-14.07027 11.45,0 22.21,2.51172 32.31,7.51177 10.12,5.0195 17.93,11.9101 23.51,20.6484 l -0.95,2.8711 c -2.36,3.0078 -5.48,6.0273 -9.29,9.039" /><path
         id="path40"
         style="fill:#2150a6;fill-opacity:1;fill-rule:nonzero;stroke:none"
         d="m 4147.39,44.6094 c -6.68,-4.2188 -13,-7.4297 -18.96,-9.6211 -5.98,-2.1797 -11.58,-3.2578 -16.83,-3.2578 -2.39,0 -5.25,0.1484 -8.59,0.4804 -17.66,2.0586 -31.98,9.9688 -42.96,23.711 -10.98,13.7383 -16.46,33.5664 -16.46,59.4301 0,10.808 2.06,22.418 6.19,34.796 3.01,8.903 7.49,16.864 13.37,23.84 3.96,4.774 9.11,8.422 15.4,10.953 6.29,2.528 12.93,3.821 19.91,3.821 12.26,0 22.68,-3.75 31.28,-11.211 8.59,-7.481 13.83,-18.129 15.75,-32 1.43,-10.321 2.16,-40.723 2.16,-91.1291 0,-1.293 -0.1,-4.5508 -0.26,-9.8125 z m 74.47,-12.8789 c -11.16,0.8008 -18.14,2.0586 -21.01,3.8203 -0.32,7.9609 -0.47,14.8008 -0.47,20.5195 v 17.8906 c 0,2.2305 -0.08,4.6993 -0.23,7.4102 -0.35,6.6797 -0.5,14.168 -0.5,22.4299 0,8.121 0.15,14.469 0.5,19.09 l 0.23,5.019 v 13.121 c -0.48,4.438 -0.73,7.891 -0.73,10.25 0,1.278 0.1,3.188 0.25,5.731 v 8.84 c -0.15,1.757 -0.25,3.738 -0.25,5.976 0,13.66 0.15,23.692 0.5,30.043 l 0.46,14.57 -0.71,24.821 0.25,11.937 -0.25,6.903 v 12.91 c -0.48,19.25 -0.7,31.097 -0.7,35.547 v 4.293 l 0.22,3.57 c 0,1.609 -0.47,4.066 -1.43,7.406 -1.76,0.332 -3.02,0.481 -3.82,0.481 -1.1,0 -4.07,-0.547 -8.84,-1.661 l -23.61,-5.5 -8.12,-1.679 c -13.84,-3.16 -23.13,-4.797 -27.91,-4.867 -4.77,-0.114 -8.69,-0.614 -11.71,-1.563 v -11.461 c 3.68,-1.758 8.47,-2.777 14.45,-3.109 5.96,-0.309 10.13,-2.61 12.54,-6.91 4.12,-7.161 6.18,-24.188 6.18,-51.071 l -0.96,-25.519 0.26,-16.008 -0.48,-5.723 c -15.91,11.934 -32.53,17.91 -49.87,17.91 h -13.37 c -13.21,-1.289 -23.43,-3.109 -30.67,-5.507 -7.25,-2.379 -14.76,-6.282 -22.56,-11.68 -29.59,-22.75 -44.38,-50.211 -44.38,-82.34 0,-18.6093 3.37,-35.7226 10.14,-51.3007 6.76,-15.5898 18.97,-28.9609 36.64,-40.0898 11.93,-7.62894 27.92,-11.44925 47.97,-11.44925 11.28,0 21.3,1.23047 30.04,3.70703 8.75,2.49222 18.47,6.93362 29.14,13.37112 3.47,2.082 6.44,3.7695 8.82,5.0508 0.48,-3.0391 0.73,-10 0.73,-20.89848 0,-0.8125 -0.09,-2.67188 -0.25,-5.562501 C 4150.57,0.148438 4152.57,0 4154.33,0 c 1.74,0 4.82,1.25 9.29,3.82031 9.22,4.91797 24.72,8.73829 46.53,11.46099 7.18,0.7773 14.02,1.9804 20.54,3.5585 1.12,2.8594 1.66,5.0313 1.66,6.4415 0,1.1171 -0.4,2.8593 -1.2,5.2695 -2.71,0.6289 -5.81,1.0273 -9.29,1.1797" /><path
         id="path42"
         style="fill:#2150a6;fill-opacity:1;fill-rule:nonzero;stroke:none"
         d="m 1288.5,452.449 c 0.46,-5.621 3.74,-10.429 9.85,-14.418 6.08,-3.961 12.88,-5.98 20.39,-5.98 h 11.96 c 5.15,0 10.42,1.66 15.82,4.929 5.39,3.29 9.26,7.282 11.61,11.961 l 505.73,822.969 c 27.66,43.61 50.76,74.2 69.29,91.79 18.51,17.58 39.03,28.49 61.54,32.71 l 6.34,0.7 c 5.14,0.93 9.6,2.91 13.36,5.98 3.74,3.04 6.33,6.43 7.73,10.2 l 7.74,28.84 c 1.41,5.14 1.06,9.37 -1.05,12.66 -2.11,3.26 -5.75,4.44 -10.9,3.51 -56.25,-7.98 -104.07,-11.95 -143.45,-11.95 -39.37,0 -84.84,3.97 -136.39,11.95 -4.7,0.45 -8.91,-0.83 -12.66,-3.87 -3.75,-3.06 -6.32,-7.16 -7.72,-12.3 l -7.74,-28.84 c -1.41,-4.22 -0.96,-7.87 1.41,-10.9 2.33,-3.07 5.62,-4.83 9.84,-5.28 l 11.96,-0.7 c 36.58,-3.3 58.26,-15.23 65.06,-35.85 6.79,-20.6 -1.3,-50.12 -24.26,-88.53 L 1407.78,646.586 h -0.31 l -109.74,588.194 c -10.79,55.74 -11.25,95.81 -1.41,120.15 9.85,24.37 32.58,38.18 68.23,41.48 l 10.55,0.7 c 5.15,0.45 9.37,2.11 12.66,4.93 4.22,3.26 7.04,7.03 8.44,11.25 l 7.74,28.84 c 1.41,5.14 0.93,9.24 -1.41,12.3 -2.34,3.04 -5.86,4.32 -10.55,3.87 -73.18,-7.98 -135.55,-11.95 -187.14,-11.95 -51.59,0 -111.63,3.97 -180.1,11.95 -4.71,0.45 -8.93,-0.83 -12.67,-3.87 -3.76,-3.06 -6.33,-7.16 -7.74,-12.3 l -7.736,-28.84 c -1.406,-3.77 -0.946,-7.29 1.406,-10.55 2.34,-3.29 5.63,-5.18 9.85,-5.63 l 9.85,-0.7 c 35.63,-5.18 59.66,-15.02 72.09,-29.55 12.42,-14.54 24.03,-46.19 34.82,-94.95 l 97.77,-482.113 c 22.03,-101.688 39.15,-186.942 51.35,-255.828 l 14.77,-81.52" /><path
         id="path44"
         style="fill:#2150a6;fill-opacity:1;fill-rule:nonzero;stroke:none"
         d="m 2202.86,1025.02 c 21.57,0 36.6,-6.46 45.04,-19.34 8.44,-12.918 8.89,-29.895 1.41,-51 -33.31,-92.844 -82.34,-182.442 -147.07,-268.7 -64.73,-86.3 -114.92,-129.421 -150.58,-129.421 -17.82,0 -31.67,6.421 -41.52,19.332 -9.85,12.89 -14.77,30.605 -14.77,53.105 0,82.051 35.4,168.567 106.25,259.567 70.82,90.96 137.91,136.457 201.24,136.457 z M 1764.82,569.211 v -2.813 c 0.47,-40.789 9.97,-73.046 28.49,-96.718 18.52,-23.66 44.43,-35.52 77.73,-35.52 59.08,0 136.45,56.5 232.11,169.516 31.88,37.508 60.96,75.488 87.22,113.953 -8.44,-23.465 -18.52,-48.309 -30.24,-74.559 -26.73,-64.707 -36.71,-115.699 -29.9,-152.992 6.8,-37.269 29.66,-55.918 68.58,-55.918 32.82,0 66,13.621 99.53,40.801 33.53,27.18 71.62,71.039 114.3,131.535 2.81,4.219 4.22,7.961 4.22,11.25 0,3.262 -1.41,6.328 -4.22,9.141 l -13.36,15.48 c -2.81,2.813 -5.4,3.965 -7.74,3.516 -3.29,-0.957 -6.81,-3.77 -10.55,-8.438 -19.7,-26.73 -36.81,-46.425 -51.35,-59.082 -14.54,-12.668 -27.43,-18.992 -38.68,-18.992 -14.07,0 -22.4,9.234 -24.97,27.781 -2.59,18.516 1.05,43.008 10.9,73.504 l 49.23,144.895 c 32.36,90.496 76.43,197.189 132.24,320.059 4.22,8.43 5.27,16.17 3.16,23.21 -2.11,7.03 -6.45,11.25 -13,12.65 l -42.9,8.44 c -6.57,1.41 -13.95,-0.12 -22.16,-4.57 -8.21,-4.47 -14.42,-10.2 -18.63,-17.23 l -26.02,-42.91 c -17.36,1.86 -36.12,2.57 -56.27,2.11 -117.25,0 -232.96,-59.2 -347.14,-177.599 -114.19,-118.418 -171.05,-238.586 -170.58,-360.5" /><path
         id="path46"
         style="fill:#2150a6;fill-opacity:1;fill-rule:nonzero;stroke:none"
         d="m 2846.91,646.586 2.11,18.992 c 0,19.219 -5.62,38.438 -16.87,57.676 -15.01,26.73 -45.02,62.355 -90.04,106.93 -38.46,38.433 -66.82,72.671 -85.11,102.691 -19.23,29.996 -26.96,53.91 -23.21,71.745 2.81,15.48 8.67,26.83 17.59,34.11 8.9,7.27 21.1,10.91 36.57,10.91 7.97,0 19.11,-3.07 33.42,-9.15 14.28,-6.1 27.54,-13.49 39.73,-22.15 12.19,-8.69 25.33,-16.08 39.4,-22.16 14.06,-6.102 24.84,-9.145 32.35,-9.145 11.25,0 21.81,4.926 31.65,14.765 9.37,9.85 15.71,22.04 19,36.58 l 1.4,11.26 c 0,20.15 -11.96,37.98 -35.88,53.45 -27.66,18.29 -63.07,27.44 -106.21,27.44 -55.8,0 -103.4,-18.07 -142.78,-54.16 -39.38,-36.13 -65.65,-85.366 -78.78,-147.714 -1.88,-9.394 -2.81,-18.765 -2.81,-28.136 0,-22.055 5.39,-43.61 16.18,-64.711 15.47,-30.036 46.64,-68.493 93.54,-115.368 38.45,-37.988 67.29,-70.339 86.52,-97.07 19.22,-27.207 27.66,-46.668 25.32,-58.379 -3.29,-17.351 -10.67,-30.023 -22.16,-37.972 -11.48,-7.989 -27.78,-11.969 -48.87,-11.969 -7.98,0 -20.3,3.871 -36.94,11.609 -16.65,7.738 -32.13,17.102 -46.42,28.141 -14.3,10.992 -29.43,20.269 -45.37,27.781 -15.95,7.481 -28.37,11.25 -37.28,11.25 -12.2,0 -23.45,-4.57 -33.76,-13.711 -10.32,-9.152 -16.88,-20.527 -19.7,-34.121 l -2.11,-17.578 c 0,-22.992 10.08,-43.391 30.25,-61.203 25.79,-22.028 59.09,-33.059 99.88,-33.059 70.34,0 129.19,19 176.55,56.981 48.29,37.98 79.24,89.781 92.84,155.445" /><path
         id="path48"
         style="fill:#2150a6;fill-opacity:1;fill-rule:nonzero;stroke:none"
         d="m 3426.45,1091.84 c -38.23,25.78 -86.18,38.69 -143.85,38.69 -97.06,0 -184.42,-46.33 -262.01,-138.921 -77.61,-92.621 -116.64,-197.086 -117.11,-313.375 0,-74.101 19.8,-133.293 59.43,-177.593 39.62,-44.321 92.26,-66.481 157.91,-66.481 57.2,0 106.68,13.141 148.42,39.399 38.91,23.91 77.6,62.601 116.05,116.054 3.28,4.219 5.15,8.543 5.63,13.008 0.47,4.453 -0.7,7.84 -3.52,10.203 l -16.21,16.25 c -2.35,2.336 -5.87,2.813 -10.56,1.406 -4.71,-1.406 -8.93,-3.992 -12.69,-7.734 -27.2,-27.234 -52.02,-47.176 -74.53,-59.832 -26.24,-15.035 -53.66,-22.543 -82.25,-22.543 -44.59,0 -79.43,17.469 -104.54,52.406 -25.11,34.922 -37.65,83.575 -37.65,145.957 0.45,82.051 25.68,157.442 75.65,226.149 49.96,68.677 104.48,103.037 163.6,103.037 14.08,0 25.21,-4.11 33.42,-12.3 8.2,-8.22 12.07,-19.6 11.6,-34.12 0,-34.715 6.2,-60.035 18.65,-75.965 12.42,-15.953 32.22,-23.914 59.43,-23.914 22.97,0 40.67,6.332 53.1,18.992 12.43,12.66 18.87,30.469 19.35,53.457 0,39.39 -19.12,71.97 -57.32,97.77" /><path
         id="path50"
         style="fill:#2150a6;fill-opacity:1;fill-rule:nonzero;stroke:none"
         d="m 3631.51,461.621 c 6.81,5.18 13.27,17.18 19.35,36.027 l 45.02,139.094 c 48.78,148.34 94.5,250.59 137.16,306.762 10.29,13.566 20.85,25.019 31.65,34.391 6.07,5.625 14.06,10.425 23.91,14.418 9.85,3.968 18.54,5.976 26.03,5.976 l 58.38,-15.473 c 8.44,-2.812 17.83,-4.472 28.13,-4.921 10.33,0 19.6,6.078 27.79,18.285 8.21,12.18 16.77,31.88 25.67,59.08 6.58,20.15 2.81,37.74 -11.23,52.76 -14.04,15 -33.97,22.51 -59.71,22.51 -53.41,0 -109.18,-43.26 -167.25,-129.78 -24.37,-36.473 -48.49,-78.805 -72.41,-126.957 l 8.92,27.43 c 22.99,71.269 29.32,127.317 18.99,168.117 -10.32,40.79 -36.12,61.19 -77.39,61.19 -29.57,0 -63.1,-17.74 -100.63,-53.16 -37.51,-35.44 -67.29,-77.35 -89.32,-125.679 -1.41,-2.816 -1.65,-5.652 -0.7,-8.464 0.93,-3.293 2.57,-5.629 4.92,-7.036 l 15.47,-9.843 c 2.34,-0.957 4.93,-0.703 7.74,0.703 3.27,1.402 5.85,3.515 7.74,6.328 7.03,11.254 16.99,21.351 29.88,30.273 12.91,8.914 24.04,13.364 33.41,13.364 17.83,0 28.48,-11.254 32,-33.789 3.52,-22.536 -0.8,-52.579 -13.01,-90.11 L 3506.68,497.52 c -5.17,-15.969 -5.62,-27.231 -1.41,-33.821 4.68,-6.551 14.99,-9.84 30.95,-9.84 h 56.96 c 18.76,0 31.56,2.59 38.33,7.762" /><path
         id="path52"
         style="fill:#2150a6;fill-opacity:1;fill-rule:nonzero;stroke:none"
         d="m 4427.84,775.305 c -21.5,-83.953 -48.38,-151.356 -80.63,-202.227 -32.26,-50.887 -64.21,-76.316 -95.78,-76.316 -33.74,0 -59.21,11.129 -76.45,33.418 -17.25,22.25 -25.88,53.808 -25.88,94.597 0,21.106 2.35,45.95 7.04,74.563 4.67,28.582 11,58.133 18.99,88.621 22.11,84.426 49.11,152.176 80.94,203.297 32.76,51.092 65.03,76.662 96.89,76.662 33.09,0 58.2,-11.15 75.29,-33.4 17.08,-22.29 25.84,-53.813 26.32,-94.61 -0.48,-21.582 -2.94,-46.676 -7.38,-75.262 -4.47,-28.613 -10.9,-58.394 -19.35,-89.343 z m 155,-16.18 c 4.67,16.406 8.55,35.273 11.6,56.637 3.05,21.328 4.58,39.265 4.58,53.812 0,73.602 -22.51,135.496 -67.53,185.686 -45.01,50.17 -100.84,75.27 -167.4,75.27 -78.78,0 -148.89,-29.09 -210.31,-87.22 -61.45,-58.162 -105.99,-137.869 -133.64,-239.165 -4.7,-16.426 -8.45,-35.168 -11.26,-56.27 -2.81,-21.105 -4.48,-38.937 -4.92,-53.457 0,-73.633 22.73,-135.398 68.23,-185.34 45.47,-49.949 101.51,-74.918 168.1,-74.918 78.78,0 148.42,28.84 208.91,86.52 61.42,58.133 105.96,137.613 133.64,238.445" /><path
         id="path54"
         style="fill:#2150a6;fill-opacity:1;fill-rule:nonzero;stroke:none"
         d="m 5061.27,1064.41 5.63,26.73 c 1.88,8.44 1.88,13.81 0,16.17 -1.89,2.34 -7.04,3.52 -15.48,3.52 h -124.5 c 22.51,120.99 45.49,213.35 68.93,277.13 l 8.45,23.22 c 9.84,24.84 23.55,45.72 41.14,62.6 17.59,16.88 34.35,25.32 50.29,25.32 26.25,0 45.73,-14.67 58.38,-43.96 12.67,-29.32 32.13,-43.96 58.38,-43.96 h 2.11 c 18.77,0 33.64,5.72 44.67,17.23 11.02,11.48 16.53,27.08 16.53,46.77 0,24.85 -13.24,45.12 -39.74,60.85 -26.51,15.7 -60.62,23.56 -102.35,23.56 -99.87,0 -179.83,-47.61 -239.85,-142.79 -45.94,-72.22 -81.36,-174.21 -106.21,-305.97 h -126.6 c -6.57,0 -10.56,-3.29 -11.97,-9.85 l -9.84,-46.42 c -1.41,-6.58 1.18,-9.85 7.73,-9.85 h 132.94 L 4689.18,613.527 C 4662.45,460.191 4640.17,344.84 4622.35,267.461 l -4.21,-14.77 c -5.15,-18.742 -11.38,-34.691 -18.65,-47.82 -7.25,-13.121 -13.48,-19.699 -18.63,-19.699 -11.26,0 -24.27,6.226 -39.04,18.629 -14.77,12.437 -27.56,18.64 -38.33,18.64 -20.63,0 -36.94,-6.55 -48.89,-19.691 -11.96,-13.109 -17.94,-30.949 -17.94,-53.461 0,-17.801 6.81,-32.348 20.4,-43.598 13.59,-11.2613 31.17,-16.8902 52.76,-16.8902 69.86,0 131.18,43.6212 183.93,130.8282 52.75,87.223 97.42,218.531 133.99,393.898 l 86.52,431.183 h 123.09 c 8.44,0 14.19,1.16 17.23,3.52 3.05,2.34 5.28,7.74 6.69,16.18" /><path
         id="path56"
         style="fill:#2150a6;fill-opacity:1;fill-rule:nonzero;stroke:none"
         d="m 5485.83,1106.96 c -1.85,2.56 -7.73,3.87 -17.58,3.87 h -120.98 l 33.76,116.06 c 5.63,19.7 6.46,32.1 2.47,37.28 -3.98,5.15 -16.28,7.03 -36.94,5.63 l -52.05,-4.23 c -20.62,-1.4 -34.46,-4.92 -41.49,-10.55 -7.04,-5.62 -13.6,-18.76 -19.7,-39.38 l -30.24,-104.81 h -85.11 c -8.45,0 -14.17,-1.18 -17.24,-3.52 -3.03,-2.36 -5.73,-7.73 -8.08,-16.17 l -7.75,-26.73 c -2.81,-8.44 -3.26,-13.84 -1.4,-16.18 1.88,-2.36 7.04,-3.52 15.48,-3.52 h 85.1 l -124.5,-426.261 c -18.28,-63.301 -19.92,-109.73 -4.92,-139.269 15.02,-30 47.61,-45.02 97.77,-45.02 41.27,0 82.78,15.262 124.5,45.731 42.68,30.461 83.48,74.558 122.39,132.23 2.36,4.219 3.77,7.961 4.22,11.25 0,3.75 -1.16,7.031 -3.52,9.856 l -14.77,15.468 c -2.34,2.813 -5.15,3.973 -8.44,3.516 -3.26,-0.949 -6.33,-3.293 -9.14,-7.031 -26.73,-33.313 -51.7,-59.211 -74.92,-77.727 -23.21,-18.531 -42.3,-27.781 -57.32,-27.781 -20.15,0 -31.52,9.25 -34.11,27.781 -2.57,18.516 2.71,50.742 15.82,96.719 l 111.13,380.538 h 120.99 c 9.84,0 16.18,1.16 18.99,3.52 3.77,2.81 7.03,9.15 9.85,18.99 l 6.32,21.1 c 2.82,9.85 3.3,16.05 1.41,18.64" /><path
         id="path58"
         style="fill:#fff200;fill-opacity:1;fill-rule:nonzero;stroke:none"
         d="M 0.773438,16.7188 H 817.988 V 189.352 H 0.773438 V 16.7188" /><path
         id="path60"
         style="fill:#2150a6;fill-opacity:1;fill-rule:nonzero;stroke:none"
         d="M 12.8633,173.559 H 805.875 V 1445.44 H 12.8633 V 173.559" /><path
         id="path62"
         style="fill:#2150a6;fill-opacity:1;fill-rule:nonzero;stroke:none"
         d="M 24.9727,185.699 H 793.77 V 1433.36 H 24.9727 Z M 817.984,161.48 H 0.753906 v 1296.1 H 817.984 V 161.48" /><path
         id="path64"
         style="fill:#fff200;fill-opacity:1;fill-rule:nonzero;stroke:none"
         d="m 504.699,1222.16 h 84.192 v 184.2 h -61.02 c -8.715,-11.78 -16.766,-7.74 -27.367,-3.16 -40.024,17.31 -85.481,22.3 -126.328,4.19 -58.703,-25.98 -87.926,-93.4 -98.961,-152.62 -24.156,-129.67 -15.277,-344.926 154.726,-359.024 54.797,-4.527 89.602,6.508 126.332,48.438 42.676,48.695 35.368,107.346 34.778,168.436 H 502.59 c 5.09,-154.6 -82.961,-151.05 -93.688,-46.33 -3.062,29.74 -24.953,252.41 31.563,261.12 68.426,10.58 59.344,-41.13 64.234,-105.25" /><path
         id="path66"
         style="fill:#fff200;fill-opacity:1;fill-rule:nonzero;stroke:none"
         d="m 429.543,1417.22 c -19.348,0 -37.859,-3.72 -54.754,-11.2 -68.703,-30.43 -91.476,-116.1 -98.086,-151.52 -17.683,-94.91 -16.324,-222.85 40.485,-297.27 27.359,-35.843 65.335,-56.031 112.882,-59.976 56.524,-4.57 90.371,8.316 125.063,47.93 37.168,42.418 36.023,92.536 34.805,145.586 -0.153,6.75 -0.305,13.53 -0.391,20.34 H 504.16 c 1.66,-58.82 -11.98,-118.7 -46.422,-121.024 -20.32,-1.527 -44.789,21.834 -50.34,76.054 -2.347,22.82 -7.699,82.03 -6.574,138.63 1.574,78.58 14.836,120.36 39.422,124.14 20.762,3.22 35.652,0.85 45.492,-7.2 16.188,-13.24 17.422,-39.57 18.965,-72.9 0.391,-8.12 0.777,-16.49 1.406,-25.13 h 81.266 v 181.17 h -58.746 c -8.965,-11.62 -17.649,-7.88 -27.68,-3.49 l -1.047,0.44 c -23.734,10.27 -47.617,15.42 -70.359,15.42 z m 21.301,-523.911 c -6.668,0 -13.656,0.316 -21.028,0.933 -48.433,4.004 -87.128,24.578 -115.039,61.141 -57.414,75.207 -58.859,204.117 -41.062,299.667 6.695,35.9 29.82,122.74 99.844,153.73 37.531,16.63 82.824,15.13 127.55,-4.19 l 1.055,-0.45 c 10.113,-4.39 16.797,-7.28 24.492,3.13 l 0.453,0.61 h 63.309 v -187.25 h -87.121 l -0.102,1.41 c -0.703,9.18 -1.121,18.05 -1.519,26.63 -1.52,32.57 -2.715,58.31 -17.863,70.69 -9.129,7.48 -23.211,9.55 -43.118,6.56 -22.586,-3.49 -35.316,-45.41 -36.843,-121.21 -1.125,-56.42 4.211,-115.48 6.558,-138.26 4.985,-48.63 26.457,-73.384 45.637,-73.384 0.496,0 0.988,0.024 1.492,0.047 23.574,1.598 46.184,39.157 43.535,119.467 l -0.054,1.57 h 91.543 l 0.011,-1.51 c 0.063,-7.31 0.239,-14.57 0.406,-21.81 1.231,-53.65 2.383,-104.334 -35.562,-147.654 -30.91,-35.274 -61.156,-49.867 -106.574,-49.867" /><path
         id="path68"
         style="fill:#fff200;fill-opacity:1;fill-rule:nonzero;stroke:none"
         d="m 447.867,870.613 c 56.129,1 79.102,19.239 120.028,52.68 29.683,24.285 67.32,-15.797 50.523,-52.68 L 447.867,403.191 271.637,868.27 c -16.797,36.859 17.207,77.25 46.918,52.964 40.929,-33.468 73.183,-49.621 129.312,-50.621" /><path
         id="path70"
         style="fill:#fff200;fill-opacity:1;fill-rule:nonzero;stroke:none"
         d="m 299.605,927.137 c -5.464,0 -10.863,-1.91 -15.878,-5.766 -12.422,-9.57 -20.395,-31.226 -10.715,-52.476 L 447.844,407.531 616.977,871.133 c 9.433,20.695 1.207,41.586 -11.766,51.57 -11.469,8.844 -25.07,8.637 -36.363,-0.59 -39.676,-32.422 -63.633,-51.988 -120.957,-53.019 -0.024,0 -0.024,0 -0.047,0 -58.383,1.043 -90.813,18.719 -130.242,50.957 -5.774,4.722 -11.934,7.086 -17.997,7.086 z M 447.867,401.68 c -0.629,0 -1.191,0.379 -1.422,0.98 L 270.211,867.723 c -10.297,22.597 -1.68,45.761 11.668,56.047 11.582,8.929 25.676,8.425 37.633,-1.36 38.902,-31.812 70.89,-49.25 128.355,-50.277 56.246,1.019 78.563,19.242 119.071,52.34 12.414,10.175 27.449,10.414 40.132,0.644 13.918,-10.73 22.758,-33.113 12.727,-55.133 L 449.297,402.66 c -0.223,-0.582 -0.789,-0.98 -1.414,-0.98 -0.016,0 -0.016,0 -0.016,0" /><path
         id="path72"
         style="fill:#fff200;fill-opacity:1;fill-rule:nonzero;stroke:none"
         d="M 787.715,1012.03 H 613.664 c -6.68,0 -12.109,5.43 -12.109,12.11 0,6.68 5.429,12.11 12.109,12.11 h 174.051 c 6.68,0 12.105,-5.43 12.105,-12.11 0,-6.68 -5.425,-12.11 -12.105,-12.11" /><path
         id="path74"
         style="fill:#fff200;fill-opacity:1;fill-rule:nonzero;stroke:none"
         d="M 254.977,1012.03 H 23.4375 c -6.6836,0 -12.1094,5.43 -12.1094,12.11 0,6.68 5.4258,12.11 12.1094,12.11 H 254.977 c 6.683,0 12.109,-5.43 12.109,-12.11 0,-6.68 -5.426,-12.11 -12.109,-12.11" /><path
         id="path76"
         style="fill:#fff200;fill-opacity:1;fill-rule:nonzero;stroke:none"
         d="M 456.27,169.078 721.273,886.43 c 19.629,34.781 46.305,50.035 80.055,45.734 L 801.996,170.75 456.27,169.078" /><path
         id="path78"
         style="fill:#2150a6;fill-opacity:1;fill-rule:nonzero;stroke:none"
         d="m 790.656,931.34 c -28.078,0 -50.933,-15.305 -68.066,-45.652 l -264.137,-715.086 342.02,1.66 -0.664,758.566 c -3.106,0.352 -6.157,0.512 -9.153,0.512 z m -336.574,-763.809 0.766,2.059 265,717.367 c 19.988,35.43 47.379,51.133 81.672,46.723 l 1.328,-0.176 v -1.332 l 0.668,-762.934 h -1.508 l -347.926,-1.707" /><path
         id="path80"
         style="fill:#fff200;fill-opacity:1;fill-rule:nonzero;stroke:none"
         d="M 383.625,169.078 80.9336,916.016 C 68.2266,927.023 44.0195,932.402 8.29297,932.164 L 9.65234,170.75 383.625,169.078" /><path
         id="path82"
         style="fill:#2150a6;fill-opacity:1;fill-rule:nonzero;stroke:none"
         d="m 11.1758,172.262 370.1832,-1.66 -301.691,744.5 c -12.1836,10.328 -35.4688,15.566 -69.2578,15.566 -0.1993,0 -0.3985,0 -0.60161,0 z m 374.7032,-4.731 -2.27,0.028 -375.46837,1.679 v 1.512 l -1.3711,762.93 1.50781,0.011 c 0.70313,0 1.40625,0 2.10936,0 34.8047,0 58.8711,-5.554 71.543,-16.531 l 0.4141,-0.574 303.5352,-749.055" /><path
         id="path84"
         style="fill:#2150a6;fill-opacity:1;fill-rule:nonzero;stroke:none"
         d="m 444.313,175.039 142.117,-1.367 v 71.078 h -5.422 C 549.555,206.121 526.168,204.629 466.91,207.801 Z m 154.23,-13.59 -177.164,1.692 39.414,57.121 3.379,-0.184 c 64.535,-3.609 81.047,-0.976 109.187,34.492 l 1.821,2.289 h 23.363 v -95.41" /><path
         id="path86"
         style="fill:#2150a6;fill-opacity:1;fill-rule:nonzero;stroke:none"
         d="m 14.582,184.559 0.3399,-10.168 384.0741,0.73 -24.422,31.801 H 110.469 l 0.551,562.504 c 4.425,9.621 20.019,16.633 33.574,21.054 l 2.703,13.161 -132.9415,-1.254 v -9.977 c 15.8398,1.133 29.1015,-4.918 39.1133,-17.984 l 1.2421,-1.629 V 204.711 l -1.582,-1.731 C 42.1523,190.969 29.2031,184.789 14.582,184.559 Z M 3.21484,162.23 2.00781,197.68 8.94141,196.949 C 21.9063,195.59 32.9219,199.66 42.6016,209.488 v 559.11 c -8.4102,10.019 -19.3008,13.613 -33.18363,10.976 l -7.17188,-1.359 v 36.18 l 159.94491,1.492 -7.171,-34.86 -3.454,-1.054 c -14.503,-4.414 -25.812,-10.164 -28.988,-14.668 V 219.031 H 380.559 L 423.535,163.059 3.21484,162.23" /><path
         id="path88"
         style="fill:#2150a6;fill-opacity:1;fill-rule:nonzero;stroke:none"
         d="m 125.969,43.6719 c 0.453,0.3984 0.844,0.6367 1.164,0.7187 0.781,0.2188 2.117,0.4297 3.984,0.5508 4.446,0.2774 7.199,0.6797 8.254,1.2383 0.641,0.9219 0.965,2.1992 0.965,3.8594 l -0.07,4.832 0.07,17.4805 -0.137,8.2695 0.067,17.3008 -0.344,19.6171 c -0.047,4.672 -0.336,7.34 -0.895,7.91 -0.824,0.879 -3.273,1.391 -7.355,1.539 -1.746,0.032 -3.277,0.172 -4.609,0.403 -0.594,0.328 -0.895,0.73 -0.895,1.23 0,0.379 0.117,0.809 0.352,1.309 0.406,0.218 0.781,0.351 1.093,0.351 0.641,0 1.422,-0.019 2.34,-0.082 2.707,-0.269 5.496,-0.398 8.387,-0.398 l 5.09,0.129 12.109,-0.282 c 6.047,0 10.762,0.082 14.164,0.231 3.395,0.121 5.68,0.199 6.871,0.199 1.055,0 3.664,-0.109 7.836,-0.277 l 9.762,0.078 1.164,-0.231 5.719,0.231 0.687,-0.359 c 0.231,-0.379 0.391,-0.75 0.481,-1.18 0,-0.621 -0.102,-1.61 -0.313,-2.942 -0.199,-1.32 -0.305,-2.148 -0.305,-2.488 0,-4.762 0.153,-8.789 0.481,-12.101 -0.055,-0.278 -0.176,-0.457 -0.406,-0.547 -0.496,0 -0.938,0.078 -1.352,0.218 -0.504,0.86 -1.183,2.379 -2.027,4.598 -0.848,2.211 -2.117,4.75 -3.817,7.641 -1.152,1.929 -2.046,3.062 -2.687,3.441 -0.641,0.352 -1.973,0.551 -3.992,0.551 -0.418,0 -2.5,0.019 -6.258,0.129 -1.016,0.051 -1.996,0.07 -2.961,0.07 l -19.609,-0.422 h -1.719 c -2.528,0 -4.035,-0.297 -4.547,-0.957 -0.781,-1.101 -1.168,-4.32 -1.168,-9.703 0,-0.547 0.113,-6.047 0.352,-16.4999 v -9.5468 c 0.5,-0.1524 1.054,-0.2032 1.644,-0.2032 h 1.168 c 0.777,0 1.922,-0.0273 3.441,-0.0664 2.383,-0.1015 3.981,-0.1523 4.813,-0.1523 0.551,0 1.027,0.0195 1.445,0.0703 4.946,0.1719 11.313,0.2812 19.114,0.2812 2.421,0.3985 3.843,0.8985 4.257,1.4297 0.692,0.8282 1.207,2.9883 1.543,6.4805 0.352,3.4689 1.121,5.4489 2.317,5.9099 0.586,0 1.14,-0.109 1.644,-0.332 0.098,-0.371 0.137,-0.73 0.137,-1.058 0,-0.301 -0.039,-0.832 -0.137,-1.551 -0.23,-1.7111 -0.34,-7.0392 -0.34,-15.9806 0,-2.3594 0.125,-5.0313 0.375,-7.9688 0.254,-2.9414 0.375,-4.5195 0.375,-4.7422 0,-0.3984 -0.058,-0.957 -0.199,-1.6601 -0.375,-0.1797 -0.664,-0.2774 -0.89,-0.2774 h -0.493 c -0.726,1.2774 -1.445,3.3008 -2.132,6.0079 -1.184,4.621 -2.438,7.5117 -3.747,8.6914 -1.304,1.1484 -3.425,1.7617 -6.351,1.7617 -0.641,0 -1.813,-0.0508 -3.508,-0.1133 -1.707,-0.0703 -4.219,-0.1172 -7.57,-0.1172 h -4.473 c -6.367,0 -10.539,-0.1211 -12.512,-0.4101 l -0.062,-2.2813 0.062,-12.6602 -0.062,-7.9882 0.062,-7.793 c 0.051,-4.668 0.352,-7.3789 0.895,-8.0977 0.777,-1.039 2.477,-1.539 5.086,-1.539 l 4.195,0.0664 c 0.375,0 1.809,-0.0195 4.309,-0.0977 2.484,-0.0703 5.574,-0.0898 9.242,-0.0898 8.844,0 14.734,0.3711 17.676,1.1289 2.926,0.75 5.351,2.1094 7.246,4.0391 1.91,1.9414 4.305,6.082 7.183,12.4804 0.879,1.8906 1.747,2.8203 2.61,2.8203 0.418,0 0.879,-0.1797 1.383,-0.5312 -1.328,-4.5391 -2.086,-7.5274 -2.27,-8.9375 -0.504,-3.2227 -0.805,-6.5117 -0.894,-9.8516 0,-1.5078 -0.36,-2.7578 -1.094,-3.7695 h -1.52 l -19.316,-0.1992 -8.664,0.0508 -20.625,-0.2696 h -8.391 c -1.054,0 -2.051,-0.0312 -2.965,-0.0625 -8.25,-0.3711 -14.32,-0.5508 -18.211,-0.5508 -0.695,0 -1.171,0.1016 -1.421,0.3321 -0.254,0.2187 -0.375,0.5508 -0.375,1 l 0.074,0.6914" /><path
         id="path90"
         style="fill:#2150a6;fill-opacity:1;fill-rule:nonzero;stroke:none"
         d="m 269.609,127.461 c 0.364,-3.031 0.551,-4.77 0.551,-5.223 l -0.277,-6.129 c -0.086,-2.609 -0.199,-4.3 -0.336,-5.019 -0.414,-0.18 -0.754,-0.281 -1.031,-0.281 l -0.629,0.152 c -1.457,6.41 -3.942,11.07 -7.461,14.008 -3.5,2.941 -7.774,4.41 -12.824,4.41 -5.223,0 -9.504,-1.469 -12.844,-4.41 -3.356,-2.938 -5.028,-6.34 -5.028,-10.239 0,-2.968 1.168,-5.699 3.504,-8.16 2.336,-2.492 8.329,-6.191 17.95,-11.1403 7.332,-3.7891 12.586,-6.8789 15.75,-9.2891 3.164,-2.4101 5.539,-5.1992 7.148,-8.3593 1.606,-3.1719 2.414,-6.6797 2.414,-10.6094 0,-4.8906 -1.285,-9.5235 -3.82,-13.8125 -2.555,-4.3203 -5.981,-7.5703 -10.289,-9.75 -4.309,-2.1797 -10.008,-3.2578 -17.117,-3.2578 -6.184,0 -12.125,0.9687 -17.813,2.9297 -3.34,1.207 -5.391,2.1601 -6.117,2.8984 -0.731,0.75 -1.094,1.5312 -1.094,2.332 0,0.5078 0.039,1.1485 0.125,1.9297 0.656,5.3984 0.992,9.8594 1.047,13.3399 0.086,2.1601 0.246,3.4179 0.473,3.7968 0.175,0.293 0.527,0.4727 1.031,0.4727 0.414,0 0.742,-0.1524 0.996,-0.4492 0.246,-0.3008 0.422,-0.8516 0.512,-1.6797 0.511,-5.6524 3.129,-10.6836 7.851,-15.1328 4.672,-4.4375 9.961,-6.6797 15.875,-6.6797 3.617,0 6.957,0.7617 10.008,2.289 3.043,1.5 5.43,3.6914 7.149,6.5508 1.722,2.8711 2.574,5.6602 2.574,8.3711 0,3.6914 -1.305,7.0781 -3.918,10.1797 -2.61,3.0586 -7.86,6.6484 -15.735,10.75 -7.89,4.0898 -13.027,7.0781 -15.418,8.9609 -3.839,3.0704 -6.726,6.3282 -8.652,9.7771 -1.43,2.66 -2.133,5.75 -2.133,9.274 0,6.367 2.524,11.769 7.559,16.199 5.051,4.418 11.808,6.629 20.289,6.629 4.672,0 8.699,-0.531 12.105,-1.578 2.477,-0.832 5.012,-2.16 7.625,-4.051" /><path
         id="path92"
         style="fill:#2150a6;fill-opacity:1;fill-rule:nonzero;stroke:none"
         d="m 284.867,120.309 2.828,10.371 c 0.176,1.379 0.43,2.261 0.754,2.66 0.317,0.379 0.692,0.582 1.094,0.582 0.828,0 1.77,-0.981 2.824,-2.961 0.778,-1.41 1.422,-2.313 1.926,-2.711 0.496,-0.391 1.238,-0.66 2.195,-0.789 l 0.692,0.078 2.953,-0.277 16.226,-0.231 19.192,0.078 h 5.64 l 10.649,0.211 c 0.465,0 1.031,-0.058 1.726,-0.129 3.114,-0.281 5.047,-0.429 5.774,-0.429 0.691,0 1.246,0.226 1.648,0.679 0.137,0.168 0.903,1.7 2.27,4.547 0.59,1.282 1.332,1.934 2.203,1.934 0.359,0 0.824,-0.102 1.379,-0.274 0.226,-0.91 0.34,-1.738 0.34,-2.457 l -0.067,-2.722 0.067,-5.797 c 0,-1.41 -0.114,-5.961 -0.34,-13.641 0,-0.511 -0.102,-0.961 -0.277,-1.39 -0.504,-0.289 -0.942,-0.469 -1.309,-0.469 -0.359,0 -0.688,0.18 -0.965,0.527 -0.273,0.321 -0.617,1.379 -1.031,3.16 -0.914,4.09 -2.055,7 -3.438,8.789 -0.918,1.133 -2.234,1.961 -3.945,2.461 -1.723,0.481 -5.84,0.743 -12.348,0.743 -5.226,0 -9.109,0 -11.617,0 -0.101,-1.84 -0.137,-3.5 -0.137,-5.032 l 0.536,-42.7302 c 0,-1.7109 -0.086,-4.8984 -0.262,-9.6289 l 0.062,-9.1601 -0.062,-5.1094 c 0,-1.6016 0.262,-2.7305 0.816,-3.4297 0.555,-0.6914 2.051,-1.332 4.473,-1.9922 4.219,-1.0507 7.035,-1.6992 8.449,-1.9297 0.879,-0.0781 1.582,-0.2812 2.141,-0.5585 v -2.0625 l -9.762,0.2617 c -5.367,0.0508 -9.394,0.1406 -12.109,0.3008 l -10.035,-0.4805 -7.364,-0.4024 c -2.058,0 -3.312,0.0235 -3.777,0.1329 l -0.953,0.3984 c 0.09,1.0508 0.289,1.7305 0.617,2.0312 0.312,0.3008 1.168,0.5586 2.531,0.7305 1.934,0.2774 4.196,0.75 6.809,1.4805 2.617,0.6992 4.336,1.4297 5.164,2.1679 0.449,0.3985 0.777,1.1016 0.969,2.0586 0.398,2 0.613,5.9727 0.613,11.9024 v 11.6797 l -0.277,25.5312 -0.274,5.5003 -0.062,18.34 c -2.891,0 -6.582,0 -11.078,0 -6.598,0 -10.618,-0.411 -12.032,-1.192 -2.254,-1.262 -5.593,-4.898 -10.039,-10.949 -1.472,-2.262 -2.75,-3.391 -3.855,-3.391 l -0.614,0.121 c -0.191,0.278 -0.277,0.528 -0.277,0.758 0,0.551 0.363,2.199 1.102,4.949 0.918,3.532 1.461,5.93 1.644,7.161" /><path
         id="path94"
         style="fill:#2150a6;fill-opacity:1;fill-rule:nonzero;stroke:none"
         d="m 372.793,90.1914 c 0,1.7578 0.719,3.3399 2.16,4.8203 1.445,1.4571 3.106,2.1797 4.988,2.1797 2.008,0 3.782,-0.75 5.289,-2.25 1.52,-1.5195 2.27,-3.2812 2.27,-5.2305 0,-2.2421 -0.863,-4.3007 -2.613,-6.1328 -1.141,-1.2773 -2.836,-1.9062 -5.086,-1.9062 -2.024,0 -3.692,0.7265 -5.024,2.1797 -1.328,1.4882 -1.984,3.5898 -1.984,6.3398" /><path
         id="path96"
         style="fill:#2150a6;fill-opacity:1;fill-rule:nonzero;stroke:none"
         d="m 373.129,48.3008 c 0,2.0195 0.742,3.8008 2.254,5.3086 1.492,1.5117 3.226,2.2617 5.207,2.2617 1.887,0 3.523,-0.6992 4.875,-2.1406 1.355,-1.4024 2.035,-3.1914 2.035,-5.3516 0,-2.1601 -0.703,-3.957 -2.109,-5.418 -1.407,-1.4804 -3.09,-2.2109 -5.075,-2.2109 -2.296,0 -4.082,0.8516 -5.324,2.5781 -1.246,1.711 -1.863,3.3711 -1.863,4.9727" /><path
         id="path98"
         style="fill:#2150a6;fill-opacity:1;fill-rule:nonzero;stroke:none"
         d="m 480.676,42.7305 h -31.492 c -0.047,0.4297 -0.063,0.7812 -0.063,1.0508 0,0.7773 0.152,1.3085 0.481,1.6093 0.324,0.3086 1.332,0.6094 3.027,0.9297 2.66,0.5586 4.809,1.211 6.453,1.9805 0.465,1.0078 0.695,1.9687 0.695,2.8281 v 4.2617 c 0,0.5 0.071,2.8203 0.207,6.961 0.039,1.5586 0.09,8.289 0.145,20.1992 l 0.137,16.168 -0.137,9.4292 c 0,1.364 0.031,5.704 0.137,12.993 C 449.848,113.691 444.152,110 443.129,110 c -0.359,0 -0.75,0.18 -1.164,0.578 -0.418,0.383 -0.617,0.762 -0.617,1.133 0,0.449 0.16,0.828 0.48,1.109 0.637,0.578 2.18,1.578 4.61,2.942 0.359,0.199 1.941,1.429 4.746,3.718 4.445,3.719 7.699,6.629 9.757,8.739 2.071,2.109 3.329,3.293 3.782,3.562 0.918,0.059 1.629,0.078 2.132,0.078 1.196,0 1.938,-0.199 2.239,-0.578 0.301,-0.402 0.453,-1.801 0.453,-4.25 l -0.488,-61.3122 v -6.0586 c 0,-1.4493 -0.032,-2.9414 -0.063,-4.4219 -0.055,-1.5078 -0.078,-2.5781 -0.078,-3.2891 0,-1.6289 0.215,-2.7109 0.629,-3.2187 0.273,-0.3203 1.117,-0.75 2.535,-1.25 l 4.672,-0.9492 c 2.027,-0.5118 3.129,-0.8594 3.305,-1.043 0.464,-0.3985 0.687,-1.0195 0.687,-1.8789 l -0.07,-0.8789" /><path
         id="path100"
         style="fill:#2150a6;fill-opacity:1;fill-rule:nonzero;stroke:none"
         d="m 545.922,125.879 c 3.394,-3.668 5.832,-7.277 7.301,-10.879 1.957,-5.02 2.953,-10.879 2.953,-17.5312 0,-7.5196 -1.106,-14.1993 -3.305,-20.0704 -2.195,-5.8789 -4.871,-10.9492 -8.012,-15.2265 -3.14,-4.293 -6.421,-7.8125 -9.863,-10.5938 -3.437,-2.7695 -7.687,-5.3086 -12.719,-7.5898 -5.039,-2.2891 -9.257,-3.4375 -12.652,-3.4375 h -0.551 c -0.554,0.3984 -0.832,0.8984 -0.832,1.5 0,0.6797 0.113,1.1601 0.352,1.3789 0.23,0.2422 0.82,0.3516 1.789,0.4101 1.691,0.1485 4.555,1.1993 8.586,3.1719 5.504,2.7578 9.699,5.7696 12.59,9.0899 4.906,5.5703 8.562,11.8984 10.961,18.957 2.414,7.0625 3.617,14.9727 3.617,23.7109 0,7.2895 -0.828,13.2185 -2.473,17.7695 -1.656,4.52 -3.996,7.813 -7.023,9.82 -3.024,2.012 -5.926,3.02 -8.723,3.02 -3.668,0 -6.785,-1.738 -9.363,-5.238 -3.532,-4.84 -5.289,-11.852 -5.289,-21.02 0,-7.2616 1.648,-12.9608 4.953,-17.1327 2.332,-2.9375 5.551,-4.3867 9.617,-4.3867 1.473,0 2.527,0.1172 3.168,0.3984 l 0.555,0.2188 c 0.464,0 0.863,-0.2188 1.238,-0.6993 0.543,-0.6797 0.82,-1.3789 0.82,-2.1289 l -0.754,-0.6093 c -1.008,-0.461 -2.16,-0.8125 -3.468,-1.0313 -1.305,-0.2305 -2.762,-0.3516 -4.372,-0.3516 -5.636,0 -10.726,2.5625 -15.257,7.711 -4.551,5.1289 -6.813,11.582 -6.813,19.4026 0,7.949 2.555,14.609 7.668,19.968 5.106,5.321 11.215,8.008 18.324,8.008 3.078,0 5.778,-0.457 8.11,-1.297 2.34,-0.882 5.304,-2.64 8.867,-5.312" /><path
         id="path102"
         style="fill:#2150a6;fill-opacity:1;fill-rule:nonzero;stroke:none"
         d="m 570.277,129.52 c 5.633,0.23 13.215,0.359 22.789,0.359 4.348,0 9.309,-0.078 14.883,-0.231 3.391,-0.128 5.602,-0.199 6.656,-0.199 l 6.661,0.071 h 1.582 c 0.363,-0.379 0.55,-0.7 0.55,-1.02 0,-0.559 -0.527,-1.891 -1.582,-4 -0.503,-0.898 -2.722,-5.93 -6.66,-15.039 -1.933,-4.512 -4.281,-10.4024 -7.078,-17.6915 l -8.66,-24.4179 c -2.059,-5.5821 -3.375,-9.4727 -3.977,-11.6797 l -1.582,-6.3828 c -0.644,-1.8789 -0.957,-3.2696 -0.957,-4.1485 0,-0.6718 0.391,-1.7617 1.164,-3.2109 -0.535,-0.75 -1.765,-1.1094 -3.664,-1.1094 -0.867,0 -1.679,0.3594 -2.449,1.1094 0.274,2.6797 1.145,6.2812 2.613,10.7305 0.539,1.5781 1.481,4.75 2.813,9.4609 1.332,4.7305 2.637,8.8984 3.918,12.5391 l 7.84,21.3007 c 2.246,6.0591 4.418,11.6291 6.531,16.7111 0.738,1.707 1.293,2.887 1.656,3.59 0.953,1.679 1.446,3.09 1.446,4.187 l -0.891,-0.07 h -0.77 l -9.066,0.281 c -0.277,0 -1.246,-0.051 -2.891,-0.16 -1.656,-0.07 -2.886,-0.121 -3.714,-0.121 l -10.657,0.07 h -3.234 l -4.539,0.129 c -2.66,0.051 -4.32,-0.25 -4.985,-0.93 -0.664,-0.648 -1.043,-2.359 -1.132,-5.128 -0.047,-0.668 -0.239,-1.348 -0.551,-1.981 -0.504,-0.141 -0.863,-0.199 -1.106,-0.199 -0.5,0 -1.164,0.172 -1.984,0.519 0.039,1.172 0.063,2.02 0.063,2.571 l 0.14,2.058 -0.203,3.774 c 0,3.308 0.086,5.527 0.277,6.679 0.086,0.45 0.336,0.981 0.75,1.579" /><path
         id="path104"
         style="fill:#2150a6;fill-opacity:1;fill-rule:nonzero;stroke:none"
         d="m 636.285,129.52 c 5.629,0.23 13.211,0.359 22.781,0.359 4.348,0 9.313,-0.078 14.891,-0.231 3.387,-0.128 5.598,-0.199 6.652,-0.199 l 6.657,0.071 h 1.582 c 0.367,-0.379 0.558,-0.7 0.558,-1.02 0,-0.559 -0.527,-1.891 -1.582,-4 -0.504,-0.898 -2.73,-5.93 -6.66,-15.039 -1.934,-4.512 -4.285,-10.4024 -7.086,-17.6915 l -8.652,-24.4179 c -2.063,-5.5821 -3.379,-9.4727 -3.981,-11.6797 l -1.586,-6.3828 c -0.64,-1.8789 -0.953,-3.2696 -0.953,-4.1485 0,-0.6718 0.391,-1.7617 1.168,-3.2109 -0.539,-0.75 -1.773,-1.1094 -3.668,-1.1094 -0.863,0 -1.683,0.3594 -2.449,1.1094 0.277,2.6797 1.145,6.2812 2.609,10.7305 0.543,1.5781 1.485,4.75 2.821,9.4609 1.328,4.7305 2.636,8.8984 3.914,12.5391 l 7.836,21.3007 c 2.254,6.0591 4.426,11.6291 6.535,16.7111 0.742,1.707 1.293,2.887 1.66,3.59 0.953,1.679 1.441,3.09 1.441,4.187 l -0.89,-0.07 h -0.766 l -9.066,0.281 c -0.281,0 -1.246,-0.051 -2.891,-0.16 -1.66,-0.07 -2.89,-0.121 -3.719,-0.121 l -10.652,0.07 h -3.238 l -4.535,0.129 c -2.661,0.051 -4.321,-0.25 -4.985,-0.93 -0.672,-0.648 -1.047,-2.359 -1.133,-5.128 -0.05,-0.668 -0.242,-1.348 -0.554,-1.981 -0.5,-0.141 -0.867,-0.199 -1.102,-0.199 -0.504,0 -1.172,0.172 -1.988,0.519 0.039,1.172 0.062,2.02 0.062,2.571 l 0.137,2.058 -0.199,3.774 c 0,3.308 0.09,5.527 0.277,6.679 0.09,0.45 0.34,0.981 0.754,1.579" /><path
         id="path106"
         style="fill:#2150a6;fill-opacity:1;fill-rule:nonzero;stroke:none"
         d="M 17.2578,22.0117 H 801.48 V 158.641 H 17.2578 Z M 817.984,5.48047 H 0.753906 V 175.172 H 817.984 V 5.48047" /><path
         id="path108"
         style="fill:#2150a6;fill-opacity:1;fill-rule:nonzero;stroke:none"
         d="M 16.5039,22.0117 H 800.738 V 1441.04 H 16.5039 Z M 817.242,5.48047 H 0 V 1457.55 H 817.242 V 5.48047" /></g></g></svg>